#!OML:ASF F:\twosubjects\two\Thursday\Session 1\Rory.ASF
:FULLY-SPECIFIED
:DEGREES
273
root 3.55369 18.8088 24.2868 1.2075 2.47343 1.2219
lowerback 1.613 2.30748 -2.87163
upperback 0.900049 3.03465 -1.03738
thorax -0.0732972 1.51024 0.491449
lowerneck -10.1107 6.88141 4.40396
upperneck 20.0978 10.0858 -6.10392
head 8.44904 4.54253 -1.69532
rclavicle 1.59276e-014 1.19271e-015
rhumerus -29.9388 -6.78913 -83.6848
rradius 38.8006
rwrist 15.3906
rhand -22.4549 27.5562
rfingers 7.12502
rthumb 3.96954 -2.38654
lclavicle 1.59276e-014 1.19271e-015
lhumerus -42.201 48.4551 57.3655
lradius 13.3488
lwrist -51.6423
lhand -12.1105 34.295
lfingers 7.12502
lthumb 13.9505 63.807
rfemur 5.49842 6.21841 19.3668
rtibia 37.2994
rfoot 9.43676 4.92685
rtoes -10.3055
lfemur -19.6687 0.953486 -20.5499
ltibia 24.1257
lfoot -4.58598 3.63718
ltoes -1.90933
274
root 3.60059 18.8515 24.4477 1.41665 2.05238 1.92241
lowerback 1.35855 2.06987 -3.68735
upperback 0.758543 2.71438 -1.31694
thorax -0.0900703 1.34971 0.67263
lowerneck -10.3598 6.53841 4.36871
upperneck 20.6409 9.5667 -5.76467
head 8.62795 4.31012 -1.62562
rclavicle -2.03009e-014 -9.93923e-015
rhumerus -30.2393 -6.55736 -84.0973
rradius 38.4341
rwrist 15.6854
rhand -22.2592 27.2405
rfingers 7.12502
rthumb 4.15849 -2.69863
lclavicle -2.03009e-014 -9.93923e-015
lhumerus -41.7593 47.638 57.9283
lradius 13.7966
lwrist -50.1857
lhand -12.3839 34.7468
lfingers 7.12502
lthumb 13.687 64.2767
rfemur 3.79188 6.1501 18.1528
rtibia 39.6329
rfoot 11.8887 5.69821
rtoes -11.4083
lfemur -18.9402 0.759973 -21.4031
ltibia 23.6665
lfoot -4.9443 4.18203
ltoes -2.39891
275
root 3.63644 18.8656 24.6069 1.41994 1.58288 1.92213
lowerback 1.18505 1.95927 -3.87207
upperback 0.739576 2.57323 -1.3142
thorax -0.0149742 1.27767 0.786951
lowerneck -10.3091 6.08762 4.40366
upperneck 20.874 8.95925 -5.82849
head 8.66756 4.01681 -1.72434
rclavicle -4.69629e-015 5.1684e-015
rhumerus -30.4678 -6.67323 -84.2079
rradius 38.2332
rwrist 15.9443
rhand -21.7891 26.5733
rfingers 7.12502
rthumb 4.61241 -3.35646
lclavicle -4.69629e-015 5.1684e-015
lhumerus -40.5038 46.0085 59.7106
lradius 14.4068
lwrist -48.5376
lhand -11.6994 35.8077
lfingers 7.12502
lthumb 14.3467 65.2919
rfemur 2.41049 6.13871 17.873
rtibia 41.982
rfoot 13.346 6.83451
rtoes -11.6961
lfemur -18.0785 0.952581 -21.4458
ltibia 23.1244
lfoot -5.20922 4.35096
ltoes -1.74025
276
root 3.68265 18.8752 24.7606 1.31579 1.22452 2.36537
lowerback 1.39586 1.88983 -4.26471
upperback 0.61567 2.45975 -1.44766
thorax -0.265809 1.22579 0.860229
lowerneck -10.566 5.50795 3.80651
upperneck 21.5834 8.19185 -5.34305
head 8.8644 3.63932 -1.54339
rclavicle -2.42517e-014 1.15295e-014
rhumerus -30.964 -6.74926 -84.1562
rradius 37.9758
rwrist 16.02
rhand -21.1789 25.9031
rfingers 7.12502
rthumb 5.20162 -4.01304
lclavicle -2.42517e-014 1.15295e-014
lhumerus -39.9361 44.9464 60.5109
lradius 14.3961
lwrist -47.8728
lhand -10.8852 35.046
lfingers 7.12502
lthumb 15.131 64.4729
rfemur 1.22187 6.02832 17.034
rtibia 44.2162
rfoot 14.7769 7.62595
rtoes -11.4225
lfemur -17.1731 1.18624 -22.0535
ltibia 22.7967
lfoot -5.61598 4.42619
ltoes -1.16905
277
root 3.7344 18.8812 24.9065 1.21075 0.956164 3.32717
lowerback 1.57075 1.74535 -5.13556
upperback 0.611677 2.2425 -1.72044
thorax -0.379566 1.11867 1.06353
lowerneck -11.0377 4.995 3.04372
upperneck 22.1127 7.48705 -4.66883
head 9.03872 3.29632 -1.25852
rclavicle 5.81445e-015 2.78299e-015
rhumerus -30.9835 -6.5441 -84.1805
rradius 37.1809
rwrist 16.1938
rhand -20.9261 25.7982
rfingers 7.12502
rthumb 5.44566 -4.11187
lclavicle 5.81445e-015 2.78299e-015
lhumerus -38.9879 43.9471 61.6619
lradius 14.4186
lwrist -46.8265
lhand -10.1966 34.334
lfingers 7.12502
lthumb 15.7943 63.7097
rfemur -0.00803508 5.7979 15.557
rtibia 46.4073
rfoot 16.1047 8.17056
rtoes -9.84924
lfemur -16.3423 1.40728 -23.2939
ltibia 22.6357
lfoot -6.12608 4.47502
ltoes -1.65801
278
root 3.77143 18.8919 25.0547 0.942338 0.670246 3.47606
lowerback 1.54622 1.61902 -5.3345
upperback 0.900344 2.08601 -1.71876
thorax -0.0668904 1.02906 1.18578
lowerneck -11.6561 4.55642 2.42103
upperneck 22.341 6.88422 -4.18189
head 9.16485 2.99681 -1.04581
rclavicle -1.19022e-014 2.06736e-014
rhumerus -30.4619 -6.42078 -84.1866
rradius 36.2158
rwrist 16.7446
rhand -20.7359 25.8721
rfingers 7.12502
rthumb 5.6293 -4.03309
lclavicle -1.19022e-014 2.06736e-014
lhumerus -37.8217 43.4947 62.9007
lradius 14.6057
lwrist -46.0279
lhand -10.7389 32.4096
lfingers 7.12502
lthumb 15.272 61.8258
rfemur -1.13286 5.9652 15.258
rtibia 48.5423
rfoot 16.9445 7.80671
rtoes -7.70936
lfemur -15.3261 1.80951 -23.5694
ltibia 22.3328
lfoot -6.61252 4.37486
ltoes -1.9978
279
root 3.79336 18.9131 25.2134 0.691734 0.413744 3.40813
lowerback 1.5619 1.4695 -5.51809
upperback 1.03489 1.88945 -1.6
thorax 0.0649647 0.924766 1.41564
lowerneck -11.9484 4.19931 1.79319
upperneck 22.6043 6.38742 -3.60823
head 9.2499 2.76263 -0.797957
rclavicle 4.29872e-015 1.47101e-014
rhumerus -30.2698 -6.22292 -84.192
rradius 35.3225
rwrist 17.166
rhand -20.8615 26.0706
rfingers 7.12502
rthumb 5.50805 -3.83783
lclavicle 4.29872e-015 1.47101e-014
lhumerus -37.0766 42.9384 63.7821
lradius 14.741
lwrist -45.2093
lhand -10.8909 33.676
lfingers 7.12502
lthumb 15.1256 63.1033
rfemur -2.35581 6.21713 15.3438
rtibia 50.6764
rfoot 17.2041 6.75326
rtoes -8.29025
lfemur -14.2531 2.32869 -23.5657
ltibia 21.8949
lfoot -6.95778 4.1919
ltoes -2.75567
280
root 3.83105 18.9292 25.3694 0.75187 0.364527 3.77004
lowerback 1.61936 1.17991 -6.00707
upperback 0.832622 1.48323 -1.60491
thorax -0.160563 0.729222 1.68673
lowerneck -11.9676 3.89371 0.939631
upperneck 23.0089 5.94806 -2.73267
head 9.32363 2.57137 -0.407196
rclavicle -3.72721e-015 1.43125e-014
rhumerus -30.5596 -5.75605 -84.1838
rradius 34.5864
rwrist 17.4856
rhand -20.9525 26.1572
rfingers 7.12502
rthumb 5.42025 -3.75348
lclavicle -3.72721e-015 1.43125e-014
lhumerus -36.9773 42.1894 64.3066
lradius 15.077
lwrist -44.6121
lhand -12.4853 32.8863
lfingers 7.12502
lthumb 13.5893 62.4228
rfemur -3.83494 5.76586 14.7014
rtibia 52.7558
rfoot 16.793 6.05602
rtoes -10.054
lfemur -13.5349 2.79604 -24.1243
ltibia 21.5334
lfoot -7.25419 3.85281
ltoes -3.48845
281
root 3.8722 18.9413 25.5031 0.857445 0.17244 4.47169
lowerback 1.73159 0.967231 -6.75312
upperback 0.72089 1.17289 -1.74816
thorax -0.326838 0.5797 1.95794
lowerneck -12.3103 3.60956 0.405327
upperneck 23.5037 5.56225 -2.22811
head 9.52127 2.38648 -0.180572
rclavicle 1.79403e-014 1.47101e-014
rhumerus -30.8925 -5.57813 -84.0785
rradius 34.532
rwrist 18.4623
rhand -19.7447 25.7933
rfingers 7.12502
rthumb 6.58627 -4.08427
lclavicle 1.79403e-014 1.47101e-014
lhumerus -36.4283 41.6258 64.9908
lradius 15.3612
lwrist -44.1293
lhand -13.018 31.968
lfingers 7.12502
lthumb 13.0758 61.5381
rfemur -5.36952 5.17166 13.6653
rtibia 54.6968
rfoot 15.8201 5.6931
rtoes -12.3922
lfemur -13.0221 2.99194 -25.0047
ltibia 21.3146
lfoot -7.59663 3.79315
ltoes -2.45384
282
root 3.89352 18.9556 25.6295 0.810021 -0.248438 4.56739
lowerback 1.85396 0.931479 -7.00486
upperback 0.813772 1.11483 -1.76103
thorax -0.298876 0.547472 2.08492
lowerneck -12.7777 3.37263 0.383319
upperneck 23.7636 5.23933 -2.20967
head 9.69572 2.22523 -0.198308
rclavicle 8.27441e-015 -2.78299e-015
rhumerus -30.8983 -5.70995 -84.01
rradius 34.3953
rwrist 19.004
rhand -18.5965 25.861
rfingers 7.12502
rthumb 7.69465 -3.97897
lclavicle 8.27441e-015 -2.78299e-015
lhumerus -34.9248 40.3634 66.4572
lradius 15.6422
lwrist -42.2684
lhand -11.9285 31.5658
lfingers 7.12502
lthumb 14.1259 61.0656
rfemur -6.8411 5.114 13.5503
rtibia 56.5846
rfoot 14.4605 4.39876
rtoes -13.9175
lfemur -12.2879 3.25802 -25.1166
ltibia 20.7897
lfoot -7.73041 3.90565
ltoes -1.34558
283
root 3.93349 18.9362 25.775 0.80294 -0.216904 5.00383
lowerback 1.75838 0.740571 -7.38914
upperback 0.887687 0.867462 -1.83589
thorax -0.150896 0.417118 2.22922
lowerneck -12.8611 3.12291 0.142541
upperneck 23.6305 4.90169 -2.07491
head 9.64899 2.06241 -0.152199
rclavicle -1.55549e-014 -8.74653e-015
rhumerus -30.9395 -5.56158 -83.8545
rradius 33.9739
rwrist 19.1671
rhand -18.1877 26.0788
rfingers 7.12502
rthumb 8.08918 -3.74636
lclavicle -1.55549e-014 -8.74653e-015
lhumerus -33.8707 39.1076 67.8191
lradius 16.1034
lwrist -40.5538
lhand -10.9408 31.5893
lfingers 7.12502
lthumb 15.0775 61.0202
rfemur -7.61999 4.70149 12.8515
rtibia 58.0706
rfoot 12.7263 2.20925
rtoes -8.95024
lfemur -11.6544 3.60856 -25.7417
ltibia 20.6288
lfoot -8.20035 3.58804
ltoes -1.26775
284
root 4.00297 18.9315 25.9192 1.22818 0.140413 7.1152
lowerback 1.39453 0.385925 -9.20009
upperback 0.755792 0.400655 -2.34926
thorax -0.0447383 0.180116 2.71451
lowerneck -12.6723 2.83935 -0.224127
upperneck 23.3591 4.53888 -1.94089
head 9.50036 1.88194 -0.0936141
rclavicle 1.34428e-014 -1.23246e-014
rhumerus -31.2047 -5.38252 -83.5011
rradius 33.6157
rwrist 19.941
rhand -17.9317 25.849
rfingers 7.12502
rthumb 8.33625 -3.96651
lclavicle 1.34428e-014 -1.23246e-014
lhumerus -33.2027 38.3309 68.8122
lradius 16.341
lwrist -39.9068
lhand -11.036 32.2185
lfingers 7.12502
lthumb 14.9858 61.6563
rfemur -9.16356 3.11783 9.81353
rtibia 59.6313
rfoot 11.1665 1.86908
rtoes -8.57676
lfemur -11.3344 3.50534 -28.3932
ltibia 20.3988
lfoot -8.75823 3.3848
ltoes -1.48735
285
root 4.01289 18.9427 26.0668 0.860662 -0.218911 5.33504
lowerback 1.56305 0.336203 -7.76971
upperback 0.928581 0.345917 -1.70787
thorax 0.0475998 0.148023 2.58482
lowerneck -12.5905 2.56831 -0.482245
upperneck 23.2455 4.17959 -1.82289
head 9.4328 1.7068 -0.0546687
rclavicle -4.87022e-015 -1.70955e-014
rhumerus -31.3368 -5.56864 -83.1686
rradius 33.288
rwrist 20.7083
rhand -17.9858 25.8831
rfingers 7.12502
rthumb 8.28404 -3.93444
lclavicle -4.87022e-015 -1.70955e-014
lhumerus -32.0904 37.5203 69.8619
lradius 16.3158
lwrist -39.3405
lhand -11.535 32.4341
lfingers 7.12502
lthumb 14.505 61.9071
rfemur -10.062 3.32985 12.0429
rtibia 60.8602
rfoot 9.77117 -0.124382
rtoes -8.7401
lfemur -10.3033 3.61888 -26.3931
ltibia 20.1055
lfoot -9.19525 3.7257
ltoes -1.38872
